<mxfile host="app.diagrams.net" agent="Mozilla/5.0 (Macintosh; Intel Mac OS X 10_15_7) AppleWebKit/537.36 (KHTML, like Gecko) Chrome/130.0.0.0 Safari/537.36" version="24.8.3">
  <diagram name="PÃ¡gina-1" id="pwo9ITIqA1KP8nr5PdT9">
    <mxGraphModel dx="1749" dy="1106" grid="1" gridSize="10" guides="1" tooltips="1" connect="1" arrows="1" fold="1" page="1" pageScale="1" pageWidth="827" pageHeight="1169" math="0" shadow="0">
      <root>
        <mxCell id="0" />
        <mxCell id="1" parent="0" />
        <mxCell id="p2oL8cGT3rf3tEynlWrr-8" value="&lt;font style=&quot;font-size: 16px;&quot;&gt;Infura API&lt;/font&gt;" style="text;strokeColor=none;fillColor=none;html=1;fontSize=24;fontStyle=1;verticalAlign=middle;align=center;rotation=0;" vertex="1" parent="1">
          <mxGeometry x="410" y="670" width="80" height="50" as="geometry" />
        </mxCell>
        <mxCell id="p2oL8cGT3rf3tEynlWrr-15" value="" style="rounded=0;whiteSpace=wrap;html=1;" vertex="1" parent="1">
          <mxGeometry x="20" y="410" width="480" height="350" as="geometry" />
        </mxCell>
        <mxCell id="p2oL8cGT3rf3tEynlWrr-16" value="Local dev machine" style="text;strokeColor=none;fillColor=none;html=1;fontSize=24;fontStyle=1;verticalAlign=middle;align=center;" vertex="1" parent="1">
          <mxGeometry x="30" y="410" width="220" height="40" as="geometry" />
        </mxCell>
        <mxCell id="p2oL8cGT3rf3tEynlWrr-2" value="" style="html=1;verticalLabelPosition=bottom;align=center;labelBackgroundColor=#ffffff;verticalAlign=top;strokeWidth=2;strokeColor=#0080F0;shadow=0;dashed=0;shape=mxgraph.ios7.icons.user;" vertex="1" parent="1">
          <mxGeometry x="50" y="565" width="40" height="40" as="geometry" />
        </mxCell>
        <mxCell id="p2oL8cGT3rf3tEynlWrr-11" value="" style="image;aspect=fixed;perimeter=ellipsePerimeter;html=1;align=center;shadow=0;dashed=0;fontColor=#4277BB;labelBackgroundColor=default;fontSize=12;spacingTop=3;image=img/lib/ibm/blockchain/smart_contract.svg;" vertex="1" parent="1">
          <mxGeometry x="170" y="565" width="40" height="40" as="geometry" />
        </mxCell>
        <mxCell id="p2oL8cGT3rf3tEynlWrr-12" value="" style="endArrow=classic;html=1;rounded=0;entryX=0;entryY=0.5;entryDx=0;entryDy=0;" edge="1" parent="1" target="p2oL8cGT3rf3tEynlWrr-11">
          <mxGeometry width="50" height="50" relative="1" as="geometry">
            <mxPoint x="90" y="585" as="sourcePoint" />
            <mxPoint x="140" y="535" as="targetPoint" />
          </mxGeometry>
        </mxCell>
        <mxCell id="p2oL8cGT3rf3tEynlWrr-20" value="Smart contract" style="text;html=1;align=center;verticalAlign=middle;whiteSpace=wrap;rounded=0;" vertex="1" parent="1">
          <mxGeometry x="160" y="620" width="60" height="30" as="geometry" />
        </mxCell>
        <mxCell id="p2oL8cGT3rf3tEynlWrr-21" value="Developer" style="text;html=1;align=center;verticalAlign=middle;whiteSpace=wrap;rounded=0;" vertex="1" parent="1">
          <mxGeometry x="40" y="620" width="60" height="30" as="geometry" />
        </mxCell>
        <mxCell id="p2oL8cGT3rf3tEynlWrr-22" value="" style="sketch=0;pointerEvents=1;shadow=0;dashed=0;html=1;strokeColor=none;fillColor=#005F4B;labelPosition=center;verticalLabelPosition=bottom;verticalAlign=top;align=center;outlineConnect=0;shape=mxgraph.veeam2.vbr_transaction_log_backup;" vertex="1" parent="1">
          <mxGeometry x="289.5" y="565" width="28.000000000000004" height="39" as="geometry" />
        </mxCell>
        <mxCell id="p2oL8cGT3rf3tEynlWrr-23" value="" style="endArrow=classic;html=1;rounded=0;entryX=0;entryY=0.5;entryDx=0;entryDy=0;" edge="1" parent="1">
          <mxGeometry width="50" height="50" relative="1" as="geometry">
            <mxPoint x="209.5" y="585" as="sourcePoint" />
            <mxPoint x="289.5" y="585" as="targetPoint" />
          </mxGeometry>
        </mxCell>
        <mxCell id="p2oL8cGT3rf3tEynlWrr-24" value="Transaction" style="text;html=1;align=center;verticalAlign=middle;whiteSpace=wrap;rounded=0;" vertex="1" parent="1">
          <mxGeometry x="273.5" y="620" width="60" height="30" as="geometry" />
        </mxCell>
        <mxCell id="p2oL8cGT3rf3tEynlWrr-18" value="&lt;font style=&quot;font-size: 12px;&quot;&gt;contract&amp;nbsp;&lt;/font&gt;&lt;div style=&quot;line-height: 10%;&quot;&gt;&lt;span style=&quot;font-size: 12px; background-color: initial;&quot;&gt;compilation&lt;/span&gt;&lt;/div&gt;" style="text;strokeColor=none;fillColor=none;html=1;fontSize=24;fontStyle=1;verticalAlign=middle;align=center;" vertex="1" parent="1">
          <mxGeometry x="80" y="525" width="100" height="40" as="geometry" />
        </mxCell>
        <mxCell id="p2oL8cGT3rf3tEynlWrr-26" value="&lt;span style=&quot;font-size: 12px;&quot;&gt;transaction&lt;/span&gt;&lt;div style=&quot;line-height: 10%;&quot;&gt;&lt;span style=&quot;font-size: 12px;&quot;&gt;creation&lt;/span&gt;&lt;/div&gt;" style="text;strokeColor=none;fillColor=none;html=1;fontSize=24;fontStyle=1;verticalAlign=middle;align=center;" vertex="1" parent="1">
          <mxGeometry x="200" y="525" width="100" height="40" as="geometry" />
        </mxCell>
        <mxCell id="p2oL8cGT3rf3tEynlWrr-27" value="Private Key" style="text;html=1;align=center;verticalAlign=middle;whiteSpace=wrap;rounded=0;" vertex="1" parent="1">
          <mxGeometry x="384" y="620" width="66" height="30" as="geometry" />
        </mxCell>
        <mxCell id="p2oL8cGT3rf3tEynlWrr-28" value="&lt;span style=&quot;font-size: 12px;&quot;&gt;transaction&amp;nbsp;&lt;/span&gt;&lt;div style=&quot;line-height: 10%;&quot;&gt;&lt;span style=&quot;font-size: 12px;&quot;&gt;signing&lt;/span&gt;&lt;/div&gt;" style="text;strokeColor=none;fillColor=none;html=1;fontSize=24;fontStyle=1;verticalAlign=middle;align=center;" vertex="1" parent="1">
          <mxGeometry x="364" y="510" width="100" height="40" as="geometry" />
        </mxCell>
        <mxCell id="p2oL8cGT3rf3tEynlWrr-30" value="&lt;span style=&quot;font-size: 12px;&quot;&gt;transaction&amp;nbsp;&lt;/span&gt;&lt;div style=&quot;line-height: 10%;&quot;&gt;&lt;span style=&quot;font-size: 12px;&quot;&gt;submission&lt;/span&gt;&lt;/div&gt;" style="text;strokeColor=none;fillColor=none;html=1;fontSize=24;fontStyle=1;verticalAlign=middle;align=center;" vertex="1" parent="1">
          <mxGeometry x="510" y="531" width="100" height="40" as="geometry" />
        </mxCell>
        <mxCell id="p2oL8cGT3rf3tEynlWrr-44" value="1" style="ellipse;whiteSpace=wrap;html=1;aspect=fixed;rotation=0;gradientColor=#223548;strokeColor=none;gradientDirection=east;fillColor=#5b738b;rounded=0;pointerEvents=0;fontFamily=Helvetica;fontSize=16;fontColor=#FFFFFF;spacingTop=4;spacingBottom=4;spacingLeft=4;spacingRight=4;points=[];fontStyle=1" vertex="1" parent="1">
          <mxGeometry x="115" y="501" width="30" height="30" as="geometry" />
        </mxCell>
        <mxCell id="p2oL8cGT3rf3tEynlWrr-43" value="&lt;b&gt;Infura API&lt;/b&gt;" style="text;html=1;align=center;verticalAlign=middle;whiteSpace=wrap;rounded=0;" vertex="1" parent="1">
          <mxGeometry x="527" y="590" width="66" height="30" as="geometry" />
        </mxCell>
        <mxCell id="p2oL8cGT3rf3tEynlWrr-45" value="2" style="ellipse;whiteSpace=wrap;html=1;aspect=fixed;rotation=0;gradientColor=#223548;strokeColor=none;gradientDirection=east;fillColor=#5b738b;rounded=0;pointerEvents=0;fontFamily=Helvetica;fontSize=16;fontColor=#FFFFFF;spacingTop=4;spacingBottom=4;spacingLeft=4;spacingRight=4;points=[];fontStyle=1" vertex="1" parent="1">
          <mxGeometry x="235" y="501" width="30" height="30" as="geometry" />
        </mxCell>
        <mxCell id="p2oL8cGT3rf3tEynlWrr-46" value="3" style="ellipse;whiteSpace=wrap;html=1;aspect=fixed;rotation=0;gradientColor=#223548;strokeColor=none;gradientDirection=east;fillColor=#5b738b;rounded=0;pointerEvents=0;fontFamily=Helvetica;fontSize=16;fontColor=#FFFFFF;spacingTop=4;spacingBottom=4;spacingLeft=4;spacingRight=4;points=[];fontStyle=1" vertex="1" parent="1">
          <mxGeometry x="399" y="490" width="30" height="30" as="geometry" />
        </mxCell>
        <mxCell id="p2oL8cGT3rf3tEynlWrr-47" value="4" style="ellipse;whiteSpace=wrap;html=1;aspect=fixed;rotation=0;gradientColor=#223548;strokeColor=none;gradientDirection=east;fillColor=#5b738b;rounded=0;pointerEvents=0;fontFamily=Helvetica;fontSize=16;fontColor=#FFFFFF;spacingTop=4;spacingBottom=4;spacingLeft=4;spacingRight=4;points=[];fontStyle=1" vertex="1" parent="1">
          <mxGeometry x="545" y="501" width="30" height="30" as="geometry" />
        </mxCell>
        <mxCell id="p2oL8cGT3rf3tEynlWrr-3" value="" style="rounded=0;whiteSpace=wrap;html=1;" vertex="1" parent="1">
          <mxGeometry x="605" y="410" width="540" height="950" as="geometry" />
        </mxCell>
        <mxCell id="p2oL8cGT3rf3tEynlWrr-4" value="Sepolia Network" style="text;strokeColor=none;fillColor=none;html=1;fontSize=24;fontStyle=1;verticalAlign=middle;align=center;" vertex="1" parent="1">
          <mxGeometry x="610" y="410" width="220" height="40" as="geometry" />
        </mxCell>
        <mxCell id="p2oL8cGT3rf3tEynlWrr-6" value="" style="aspect=fixed;sketch=0;html=1;dashed=0;whitespace=wrap;verticalLabelPosition=bottom;verticalAlign=top;fillColor=#2875E2;strokeColor=#ffffff;points=[[0.005,0.63,0],[0.1,0.2,0],[0.9,0.2,0],[0.5,0,0],[0.995,0.63,0],[0.72,0.99,0],[0.5,1,0],[0.28,0.99,0]];shape=mxgraph.kubernetes.icon2;prIcon=node" vertex="1" parent="1">
          <mxGeometry x="640" y="550" width="50" height="48" as="geometry" />
        </mxCell>
        <mxCell id="p2oL8cGT3rf3tEynlWrr-48" value="" style="aspect=fixed;sketch=0;html=1;dashed=0;whitespace=wrap;verticalLabelPosition=bottom;verticalAlign=top;fillColor=#f8cecc;strokeColor=#b85450;points=[[0.005,0.63,0],[0.1,0.2,0],[0.9,0.2,0],[0.5,0,0],[0.995,0.63,0],[0.72,0.99,0],[0.5,1,0],[0.28,0.99,0]];shape=mxgraph.kubernetes.icon2;prIcon=node" vertex="1" parent="1">
          <mxGeometry x="750" y="470" width="50" height="48" as="geometry" />
        </mxCell>
        <mxCell id="p2oL8cGT3rf3tEynlWrr-49" value="" style="aspect=fixed;sketch=0;html=1;dashed=0;whitespace=wrap;verticalLabelPosition=bottom;verticalAlign=top;fillColor=#2875E2;strokeColor=#ffffff;points=[[0.005,0.63,0],[0.1,0.2,0],[0.9,0.2,0],[0.5,0,0],[0.995,0.63,0],[0.72,0.99,0],[0.5,1,0],[0.28,0.99,0]];shape=mxgraph.kubernetes.icon2;prIcon=node" vertex="1" parent="1">
          <mxGeometry x="740" y="598" width="50" height="48" as="geometry" />
        </mxCell>
        <mxCell id="p2oL8cGT3rf3tEynlWrr-50" value="" style="aspect=fixed;sketch=0;html=1;dashed=0;whitespace=wrap;verticalLabelPosition=bottom;verticalAlign=top;fillColor=#2875E2;strokeColor=#ffffff;points=[[0.005,0.63,0],[0.1,0.2,0],[0.9,0.2,0],[0.5,0,0],[0.995,0.63,0],[0.72,0.99,0],[0.5,1,0],[0.28,0.99,0]];shape=mxgraph.kubernetes.icon2;prIcon=node" vertex="1" parent="1">
          <mxGeometry x="1040" y="440" width="50" height="48" as="geometry" />
        </mxCell>
        <mxCell id="p2oL8cGT3rf3tEynlWrr-51" value="" style="aspect=fixed;sketch=0;html=1;dashed=0;whitespace=wrap;verticalLabelPosition=bottom;verticalAlign=top;fillColor=#2875E2;strokeColor=#ffffff;points=[[0.005,0.63,0],[0.1,0.2,0],[0.9,0.2,0],[0.5,0,0],[0.995,0.63,0],[0.72,0.99,0],[0.5,1,0],[0.28,0.99,0]];shape=mxgraph.kubernetes.icon2;prIcon=node" vertex="1" parent="1">
          <mxGeometry x="910" y="488" width="50" height="48" as="geometry" />
        </mxCell>
        <mxCell id="p2oL8cGT3rf3tEynlWrr-52" value="" style="aspect=fixed;sketch=0;html=1;dashed=0;whitespace=wrap;verticalLabelPosition=bottom;verticalAlign=top;fillColor=#f8cecc;strokeColor=#b85450;points=[[0.005,0.63,0],[0.1,0.2,0],[0.9,0.2,0],[0.5,0,0],[0.995,0.63,0],[0.72,0.99,0],[0.5,1,0],[0.28,0.99,0]];shape=mxgraph.kubernetes.icon2;prIcon=node" vertex="1" parent="1">
          <mxGeometry x="970" y="558" width="50" height="48" as="geometry" />
        </mxCell>
        <mxCell id="p2oL8cGT3rf3tEynlWrr-53" value="" style="aspect=fixed;sketch=0;html=1;dashed=0;whitespace=wrap;verticalLabelPosition=bottom;verticalAlign=top;fillColor=#2875E2;strokeColor=#ffffff;points=[[0.005,0.63,0],[0.1,0.2,0],[0.9,0.2,0],[0.5,0,0],[0.995,0.63,0],[0.72,0.99,0],[0.5,1,0],[0.28,0.99,0]];shape=mxgraph.kubernetes.icon2;prIcon=node" vertex="1" parent="1">
          <mxGeometry x="860" y="598" width="50" height="48" as="geometry" />
        </mxCell>
        <mxCell id="p2oL8cGT3rf3tEynlWrr-60" value="5" style="ellipse;whiteSpace=wrap;html=1;aspect=fixed;rotation=0;gradientColor=#223548;strokeColor=none;gradientDirection=east;fillColor=#5b738b;rounded=0;pointerEvents=0;fontFamily=Helvetica;fontSize=16;fontColor=#FFFFFF;spacingTop=4;spacingBottom=4;spacingLeft=4;spacingRight=4;points=[];fontStyle=1" vertex="1" parent="1">
          <mxGeometry x="640" y="470" width="30" height="30" as="geometry" />
        </mxCell>
        <mxCell id="p2oL8cGT3rf3tEynlWrr-61" value="&lt;span style=&quot;font-size: 12px;&quot;&gt;transaction&amp;nbsp;&lt;/span&gt;&lt;div style=&quot;line-height: 10%;&quot;&gt;&lt;span style=&quot;font-size: 12px;&quot;&gt;propagation&lt;/span&gt;&lt;/div&gt;" style="text;strokeColor=none;fillColor=none;html=1;fontSize=24;fontStyle=1;verticalAlign=middle;align=center;" vertex="1" parent="1">
          <mxGeometry x="605" y="496" width="100" height="40" as="geometry" />
        </mxCell>
        <mxCell id="p2oL8cGT3rf3tEynlWrr-91" value="" style="endArrow=classic;html=1;rounded=0;entryX=0.005;entryY=0.63;entryDx=0;entryDy=0;entryPerimeter=0;" edge="1" parent="1" target="p2oL8cGT3rf3tEynlWrr-52">
          <mxGeometry width="50" height="50" relative="1" as="geometry">
            <mxPoint x="690" y="580" as="sourcePoint" />
            <mxPoint x="740" y="530" as="targetPoint" />
          </mxGeometry>
        </mxCell>
        <mxCell id="p2oL8cGT3rf3tEynlWrr-93" value="" style="endArrow=classic;html=1;rounded=0;exitX=0.28;exitY=0.99;exitDx=0;exitDy=0;exitPerimeter=0;entryX=0.995;entryY=0.63;entryDx=0;entryDy=0;entryPerimeter=0;" edge="1" parent="1" source="p2oL8cGT3rf3tEynlWrr-52" target="p2oL8cGT3rf3tEynlWrr-53">
          <mxGeometry width="50" height="50" relative="1" as="geometry">
            <mxPoint x="960" y="670" as="sourcePoint" />
            <mxPoint x="1010" y="620" as="targetPoint" />
          </mxGeometry>
        </mxCell>
        <mxCell id="p2oL8cGT3rf3tEynlWrr-94" value="" style="endArrow=classic;html=1;rounded=0;entryX=0.28;entryY=0.99;entryDx=0;entryDy=0;entryPerimeter=0;exitX=0.9;exitY=0.2;exitDx=0;exitDy=0;exitPerimeter=0;" edge="1" parent="1" source="p2oL8cGT3rf3tEynlWrr-53" target="p2oL8cGT3rf3tEynlWrr-51">
          <mxGeometry width="50" height="50" relative="1" as="geometry">
            <mxPoint x="880" y="600" as="sourcePoint" />
            <mxPoint x="930" y="550" as="targetPoint" />
          </mxGeometry>
        </mxCell>
        <mxCell id="p2oL8cGT3rf3tEynlWrr-95" value="" style="endArrow=classic;html=1;rounded=0;exitX=0.005;exitY=0.63;exitDx=0;exitDy=0;exitPerimeter=0;entryX=0.995;entryY=0.63;entryDx=0;entryDy=0;entryPerimeter=0;" edge="1" parent="1" source="p2oL8cGT3rf3tEynlWrr-51" target="p2oL8cGT3rf3tEynlWrr-48">
          <mxGeometry width="50" height="50" relative="1" as="geometry">
            <mxPoint x="850" y="510" as="sourcePoint" />
            <mxPoint x="900" y="460" as="targetPoint" />
          </mxGeometry>
        </mxCell>
        <mxCell id="p2oL8cGT3rf3tEynlWrr-96" value="" style="endArrow=classic;html=1;rounded=0;exitX=0.9;exitY=0.2;exitDx=0;exitDy=0;exitPerimeter=0;entryX=0.005;entryY=0.63;entryDx=0;entryDy=0;entryPerimeter=0;" edge="1" parent="1" source="p2oL8cGT3rf3tEynlWrr-48" target="p2oL8cGT3rf3tEynlWrr-50">
          <mxGeometry width="50" height="50" relative="1" as="geometry">
            <mxPoint x="790" y="490" as="sourcePoint" />
            <mxPoint x="840" y="440" as="targetPoint" />
          </mxGeometry>
        </mxCell>
        <mxCell id="p2oL8cGT3rf3tEynlWrr-97" value="" style="endArrow=classic;html=1;rounded=0;exitX=0.28;exitY=0.99;exitDx=0;exitDy=0;exitPerimeter=0;entryX=0.995;entryY=0.63;entryDx=0;entryDy=0;entryPerimeter=0;" edge="1" parent="1" source="p2oL8cGT3rf3tEynlWrr-50" target="p2oL8cGT3rf3tEynlWrr-49">
          <mxGeometry width="50" height="50" relative="1" as="geometry">
            <mxPoint x="1000" y="550" as="sourcePoint" />
            <mxPoint x="1050" y="500" as="targetPoint" />
          </mxGeometry>
        </mxCell>
        <mxCell id="p2oL8cGT3rf3tEynlWrr-98" value="" style="rounded=0;whiteSpace=wrap;html=1;" vertex="1" parent="1">
          <mxGeometry x="750" y="690" width="370" height="60" as="geometry" />
        </mxCell>
        <mxCell id="p2oL8cGT3rf3tEynlWrr-99" value="7" style="ellipse;whiteSpace=wrap;html=1;aspect=fixed;rotation=0;gradientColor=#223548;strokeColor=none;gradientDirection=east;fillColor=#5b738b;rounded=0;pointerEvents=0;fontFamily=Helvetica;fontSize=16;fontColor=#FFFFFF;spacingTop=4;spacingBottom=4;spacingLeft=4;spacingRight=4;points=[];fontStyle=1" vertex="1" parent="1">
          <mxGeometry x="675" y="684" width="30" height="30" as="geometry" />
        </mxCell>
        <mxCell id="p2oL8cGT3rf3tEynlWrr-100" value="&lt;span style=&quot;font-size: 12px;&quot;&gt;transaction&amp;nbsp;&lt;/span&gt;&lt;div style=&quot;line-height: 10%;&quot;&gt;&lt;span style=&quot;font-size: 12px;&quot;&gt;pool&lt;/span&gt;&lt;/div&gt;" style="text;strokeColor=none;fillColor=none;html=1;fontSize=24;fontStyle=1;verticalAlign=middle;align=center;" vertex="1" parent="1">
          <mxGeometry x="640" y="710" width="100" height="40" as="geometry" />
        </mxCell>
        <mxCell id="p2oL8cGT3rf3tEynlWrr-9" value="" style="endArrow=classic;html=1;rounded=0;entryX=0.1;entryY=0.771;entryDx=0;entryDy=0;entryPerimeter=0;" edge="1" parent="1" target="p2oL8cGT3rf3tEynlWrr-6">
          <mxGeometry width="50" height="50" relative="1" as="geometry">
            <mxPoint x="317.5" y="585" as="sourcePoint" />
            <mxPoint x="520" y="585" as="targetPoint" />
          </mxGeometry>
        </mxCell>
        <mxCell id="p2oL8cGT3rf3tEynlWrr-102" value="6" style="ellipse;whiteSpace=wrap;html=1;aspect=fixed;rotation=0;gradientColor=#223548;strokeColor=none;gradientDirection=east;fillColor=#5b738b;rounded=0;pointerEvents=0;fontFamily=Helvetica;fontSize=16;fontColor=#FFFFFF;spacingTop=4;spacingBottom=4;spacingLeft=4;spacingRight=4;points=[];fontStyle=1" vertex="1" parent="1">
          <mxGeometry x="1075" y="541" width="30" height="30" as="geometry" />
        </mxCell>
        <mxCell id="p2oL8cGT3rf3tEynlWrr-103" value="&lt;span style=&quot;font-size: 12px;&quot;&gt;transaction&amp;nbsp;&lt;/span&gt;&lt;div style=&quot;line-height: 10%;&quot;&gt;&lt;span style=&quot;font-size: 12px;&quot;&gt;validation&lt;/span&gt;&lt;/div&gt;" style="text;strokeColor=none;fillColor=none;html=1;fontSize=24;fontStyle=1;verticalAlign=middle;align=center;" vertex="1" parent="1">
          <mxGeometry x="1040" y="567" width="100" height="40" as="geometry" />
        </mxCell>
        <mxCell id="p2oL8cGT3rf3tEynlWrr-104" value="" style="shape=image;html=1;verticalAlign=top;verticalLabelPosition=bottom;labelBackgroundColor=#ffffff;imageAspect=0;aspect=fixed;image=https://cdn2.iconfinder.com/data/icons/onebit/PNG/onebit_34.png" vertex="1" parent="1">
          <mxGeometry x="727.5" y="488" width="21" height="21" as="geometry" />
        </mxCell>
        <mxCell id="p2oL8cGT3rf3tEynlWrr-105" value="" style="shape=image;html=1;verticalAlign=top;verticalLabelPosition=bottom;labelBackgroundColor=#ffffff;imageAspect=0;aspect=fixed;image=https://cdn2.iconfinder.com/data/icons/onebit/PNG/onebit_34.png" vertex="1" parent="1">
          <mxGeometry x="1099" y="460" width="21" height="21" as="geometry" />
        </mxCell>
        <mxCell id="p2oL8cGT3rf3tEynlWrr-106" value="" style="shape=image;html=1;verticalAlign=top;verticalLabelPosition=bottom;labelBackgroundColor=#ffffff;imageAspect=0;aspect=fixed;image=https://cdn2.iconfinder.com/data/icons/onebit/PNG/onebit_34.png" vertex="1" parent="1">
          <mxGeometry x="960" y="504" width="21" height="21" as="geometry" />
        </mxCell>
        <mxCell id="p2oL8cGT3rf3tEynlWrr-107" value="" style="shape=image;html=1;verticalAlign=top;verticalLabelPosition=bottom;labelBackgroundColor=#ffffff;imageAspect=0;aspect=fixed;image=https://cdn2.iconfinder.com/data/icons/onebit/PNG/onebit_34.png" vertex="1" parent="1">
          <mxGeometry x="719" y="620" width="21" height="21" as="geometry" />
        </mxCell>
        <mxCell id="p2oL8cGT3rf3tEynlWrr-108" value="" style="shape=image;html=1;verticalAlign=top;verticalLabelPosition=bottom;labelBackgroundColor=#ffffff;imageAspect=0;aspect=fixed;image=https://cdn2.iconfinder.com/data/icons/onebit/PNG/onebit_34.png" vertex="1" parent="1">
          <mxGeometry x="1019" y="550" width="21" height="21" as="geometry" />
        </mxCell>
        <mxCell id="p2oL8cGT3rf3tEynlWrr-110" value="" style="shape=image;html=1;verticalAlign=top;verticalLabelPosition=bottom;labelBackgroundColor=#ffffff;imageAspect=0;aspect=fixed;image=https://cdn2.iconfinder.com/data/icons/onebit/PNG/onebit_34.png" vertex="1" parent="1">
          <mxGeometry x="839" y="620" width="21" height="21" as="geometry" />
        </mxCell>
        <mxCell id="p2oL8cGT3rf3tEynlWrr-111" value="" style="sketch=0;pointerEvents=1;shadow=0;dashed=0;html=1;strokeColor=#ffb700;fillColor=#ff0000;labelPosition=center;verticalLabelPosition=bottom;verticalAlign=top;align=center;outlineConnect=0;shape=mxgraph.veeam2.vbr_transaction_log_backup;fillStyle=solid;" vertex="1" parent="1">
          <mxGeometry x="820" y="700.5" width="28.000000000000004" height="39" as="geometry" />
        </mxCell>
        <mxCell id="p2oL8cGT3rf3tEynlWrr-112" value="" style="sketch=0;pointerEvents=1;shadow=0;dashed=0;html=1;strokeColor=none;fillColor=#005F4B;labelPosition=center;verticalLabelPosition=bottom;verticalAlign=top;align=center;outlineConnect=0;shape=mxgraph.veeam2.vbr_transaction_log_backup;" vertex="1" parent="1">
          <mxGeometry x="871" y="700.5" width="28.000000000000004" height="39" as="geometry" />
        </mxCell>
        <mxCell id="p2oL8cGT3rf3tEynlWrr-113" value="" style="sketch=0;pointerEvents=1;shadow=0;dashed=0;html=1;strokeColor=none;fillColor=#005F4B;labelPosition=center;verticalLabelPosition=bottom;verticalAlign=top;align=center;outlineConnect=0;shape=mxgraph.veeam2.vbr_transaction_log_backup;" vertex="1" parent="1">
          <mxGeometry x="921" y="700.5" width="28.000000000000004" height="39" as="geometry" />
        </mxCell>
        <mxCell id="p2oL8cGT3rf3tEynlWrr-115" value="" style="sketch=0;pointerEvents=1;shadow=0;dashed=0;html=1;strokeColor=none;fillColor=#005F4B;labelPosition=center;verticalLabelPosition=bottom;verticalAlign=top;align=center;outlineConnect=0;shape=mxgraph.veeam2.vbr_transaction_log_backup;" vertex="1" parent="1">
          <mxGeometry x="1019" y="700.5" width="28.000000000000004" height="39" as="geometry" />
        </mxCell>
        <mxCell id="p2oL8cGT3rf3tEynlWrr-116" value="" style="sketch=0;pointerEvents=1;shadow=0;dashed=0;html=1;strokeColor=none;fillColor=#005F4B;labelPosition=center;verticalLabelPosition=bottom;verticalAlign=top;align=center;outlineConnect=0;shape=mxgraph.veeam2.vbr_transaction_log_backup;" vertex="1" parent="1">
          <mxGeometry x="1071" y="700.5" width="28.000000000000004" height="39" as="geometry" />
        </mxCell>
        <mxCell id="p2oL8cGT3rf3tEynlWrr-117" value="" style="sketch=0;pointerEvents=1;shadow=0;dashed=0;html=1;strokeColor=none;fillColor=#005F4B;labelPosition=center;verticalLabelPosition=bottom;verticalAlign=top;align=center;outlineConnect=0;shape=mxgraph.veeam2.vbr_transaction_log_backup;" vertex="1" parent="1">
          <mxGeometry x="772" y="700.5" width="28.000000000000004" height="39" as="geometry" />
        </mxCell>
        <mxCell id="p2oL8cGT3rf3tEynlWrr-118" value="" style="sketch=0;pointerEvents=1;shadow=0;dashed=0;html=1;strokeColor=#ffb700;fillColor=#ff0000;labelPosition=center;verticalLabelPosition=bottom;verticalAlign=top;align=center;outlineConnect=0;shape=mxgraph.veeam2.vbr_transaction_log_backup;fillStyle=solid;" vertex="1" parent="1">
          <mxGeometry x="970" y="700.5" width="28.000000000000004" height="39" as="geometry" />
        </mxCell>
        <mxCell id="p2oL8cGT3rf3tEynlWrr-10" value="" style="outlineConnect=0;dashed=0;verticalLabelPosition=bottom;verticalAlign=top;align=center;html=1;shape=mxgraph.aws3.add_on;fillColor=#759C3E;gradientColor=none;rotation=90;" vertex="1" parent="1">
          <mxGeometry x="389" y="571" width="49.5" height="27" as="geometry" />
        </mxCell>
        <mxCell id="p2oL8cGT3rf3tEynlWrr-119" value="Node" style="text;html=1;align=center;verticalAlign=middle;whiteSpace=wrap;rounded=0;" vertex="1" parent="1">
          <mxGeometry x="632" y="598" width="66" height="30" as="geometry" />
        </mxCell>
        <mxCell id="p2oL8cGT3rf3tEynlWrr-121" value="Miner node" style="text;html=1;align=center;verticalAlign=middle;whiteSpace=wrap;rounded=0;" vertex="1" parent="1">
          <mxGeometry x="742" y="520" width="66" height="30" as="geometry" />
        </mxCell>
        <mxCell id="p2oL8cGT3rf3tEynlWrr-122" value="Miner node" style="text;html=1;align=center;verticalAlign=middle;whiteSpace=wrap;rounded=0;" vertex="1" parent="1">
          <mxGeometry x="962" y="607" width="66" height="30" as="geometry" />
        </mxCell>
        <mxCell id="p2oL8cGT3rf3tEynlWrr-123" value="Node" style="text;html=1;align=center;verticalAlign=middle;whiteSpace=wrap;rounded=0;" vertex="1" parent="1">
          <mxGeometry x="732" y="640" width="66" height="30" as="geometry" />
        </mxCell>
        <mxCell id="p2oL8cGT3rf3tEynlWrr-124" value="Node" style="text;html=1;align=center;verticalAlign=middle;whiteSpace=wrap;rounded=0;" vertex="1" parent="1">
          <mxGeometry x="852" y="641" width="66" height="30" as="geometry" />
        </mxCell>
        <mxCell id="p2oL8cGT3rf3tEynlWrr-125" value="Node" style="text;html=1;align=center;verticalAlign=middle;whiteSpace=wrap;rounded=0;" vertex="1" parent="1">
          <mxGeometry x="1033" y="483.5" width="66" height="30" as="geometry" />
        </mxCell>
        <mxCell id="p2oL8cGT3rf3tEynlWrr-126" value="" style="aspect=fixed;sketch=0;html=1;dashed=0;whitespace=wrap;verticalLabelPosition=bottom;verticalAlign=top;fillColor=#f8cecc;strokeColor=#b85450;points=[[0.005,0.63,0],[0.1,0.2,0],[0.9,0.2,0],[0.5,0,0],[0.995,0.63,0],[0.72,0.99,0],[0.5,1,0],[0.28,0.99,0]];shape=mxgraph.kubernetes.icon2;prIcon=node" vertex="1" parent="1">
          <mxGeometry x="750" y="780" width="50" height="48" as="geometry" />
        </mxCell>
        <mxCell id="p2oL8cGT3rf3tEynlWrr-127" value="" style="aspect=fixed;sketch=0;html=1;dashed=0;whitespace=wrap;verticalLabelPosition=bottom;verticalAlign=top;fillColor=#f8cecc;strokeColor=#b85450;points=[[0.005,0.63,0],[0.1,0.2,0],[0.9,0.2,0],[0.5,0,0],[0.995,0.63,0],[0.72,0.99,0],[0.5,1,0],[0.28,0.99,0]];shape=mxgraph.kubernetes.icon2;prIcon=node" vertex="1" parent="1">
          <mxGeometry x="1070" y="780" width="50" height="48" as="geometry" />
        </mxCell>
        <mxCell id="p2oL8cGT3rf3tEynlWrr-128" value="" style="aspect=fixed;sketch=0;html=1;dashed=0;whitespace=wrap;verticalLabelPosition=bottom;verticalAlign=top;fillColor=#f8cecc;strokeColor=#b85450;points=[[0.005,0.63,0],[0.1,0.2,0],[0.9,0.2,0],[0.5,0,0],[0.995,0.63,0],[0.72,0.99,0],[0.5,1,0],[0.28,0.99,0]];shape=mxgraph.kubernetes.icon2;prIcon=node" vertex="1" parent="1">
          <mxGeometry x="910" y="780" width="50" height="48" as="geometry" />
        </mxCell>
        <mxCell id="p2oL8cGT3rf3tEynlWrr-135" value="" style="endArrow=classic;html=1;rounded=0;" edge="1" parent="1">
          <mxGeometry width="50" height="50" relative="1" as="geometry">
            <mxPoint x="790" y="790" as="sourcePoint" />
            <mxPoint x="830" y="740" as="targetPoint" />
          </mxGeometry>
        </mxCell>
        <mxCell id="p2oL8cGT3rf3tEynlWrr-136" value="" style="endArrow=classic;html=1;rounded=0;" edge="1" parent="1" target="p2oL8cGT3rf3tEynlWrr-118">
          <mxGeometry width="50" height="50" relative="1" as="geometry">
            <mxPoint x="950" y="790" as="sourcePoint" />
            <mxPoint x="1000" y="740" as="targetPoint" />
          </mxGeometry>
        </mxCell>
        <mxCell id="p2oL8cGT3rf3tEynlWrr-137" value="" style="endArrow=classic;html=1;rounded=0;exitX=0.1;exitY=0.2;exitDx=0;exitDy=0;exitPerimeter=0;" edge="1" parent="1" source="p2oL8cGT3rf3tEynlWrr-127" target="p2oL8cGT3rf3tEynlWrr-118">
          <mxGeometry width="50" height="50" relative="1" as="geometry">
            <mxPoint x="920" y="890" as="sourcePoint" />
            <mxPoint x="970" y="840" as="targetPoint" />
          </mxGeometry>
        </mxCell>
        <mxCell id="p2oL8cGT3rf3tEynlWrr-138" value="8" style="ellipse;whiteSpace=wrap;html=1;aspect=fixed;rotation=0;gradientColor=#223548;strokeColor=none;gradientDirection=east;fillColor=#5b738b;rounded=0;pointerEvents=0;fontFamily=Helvetica;fontSize=16;fontColor=#FFFFFF;spacingTop=4;spacingBottom=4;spacingLeft=4;spacingRight=4;points=[];fontStyle=1" vertex="1" parent="1">
          <mxGeometry x="670.5" y="807" width="30" height="30" as="geometry" />
        </mxCell>
        <mxCell id="p2oL8cGT3rf3tEynlWrr-139" value="&lt;span style=&quot;font-size: 12px;&quot;&gt;block&amp;nbsp;&lt;/span&gt;&lt;div style=&quot;line-height: 10%;&quot;&gt;&lt;span style=&quot;font-size: 12px;&quot;&gt;creation&lt;/span&gt;&lt;/div&gt;" style="text;strokeColor=none;fillColor=none;html=1;fontSize=24;fontStyle=1;verticalAlign=middle;align=center;" vertex="1" parent="1">
          <mxGeometry x="635.5" y="833" width="100" height="40" as="geometry" />
        </mxCell>
        <mxCell id="p2oL8cGT3rf3tEynlWrr-141" value="" style="sketch=0;pointerEvents=1;shadow=0;dashed=0;html=1;strokeColor=none;fillColor=#000000;labelPosition=center;verticalLabelPosition=bottom;verticalAlign=top;outlineConnect=0;align=center;shape=mxgraph.office.concepts.node_generic;" vertex="1" parent="1">
          <mxGeometry x="759.5" y="1274" width="46" height="52" as="geometry" />
        </mxCell>
        <mxCell id="p2oL8cGT3rf3tEynlWrr-144" value="" style="sketch=0;pointerEvents=1;shadow=0;dashed=0;html=1;strokeColor=none;fillColor=#000000;labelPosition=center;verticalLabelPosition=bottom;verticalAlign=top;outlineConnect=0;align=center;shape=mxgraph.office.concepts.node_generic;" vertex="1" parent="1">
          <mxGeometry x="899.5" y="1274" width="46" height="52" as="geometry" />
        </mxCell>
        <mxCell id="p2oL8cGT3rf3tEynlWrr-145" value="" style="sketch=0;pointerEvents=1;shadow=0;dashed=0;html=1;strokeColor=none;fillColor=#000000;labelPosition=center;verticalLabelPosition=bottom;verticalAlign=top;outlineConnect=0;align=center;shape=mxgraph.office.concepts.node_generic;" vertex="1" parent="1">
          <mxGeometry x="969.5" y="1274" width="46" height="52" as="geometry" />
        </mxCell>
        <mxCell id="p2oL8cGT3rf3tEynlWrr-146" value="" style="sketch=0;pointerEvents=1;shadow=0;dashed=0;html=1;strokeColor=none;fillColor=#00BF00;labelPosition=center;verticalLabelPosition=bottom;verticalAlign=top;outlineConnect=0;align=center;shape=mxgraph.office.concepts.node_generic;" vertex="1" parent="1">
          <mxGeometry x="1038.5" y="1274" width="46" height="52" as="geometry" />
        </mxCell>
        <mxCell id="p2oL8cGT3rf3tEynlWrr-147" value="11" style="ellipse;whiteSpace=wrap;html=1;aspect=fixed;rotation=0;gradientColor=#223548;strokeColor=none;gradientDirection=east;fillColor=#5b738b;rounded=0;pointerEvents=0;fontFamily=Helvetica;fontSize=16;fontColor=#FFFFFF;spacingTop=4;spacingBottom=4;spacingLeft=4;spacingRight=4;points=[];fontStyle=1" vertex="1" parent="1">
          <mxGeometry x="684.5" y="1260" width="30" height="30" as="geometry" />
        </mxCell>
        <mxCell id="p2oL8cGT3rf3tEynlWrr-150" value="" style="endArrow=none;dashed=1;html=1;dashPattern=1 3;strokeWidth=2;rounded=0;" edge="1" parent="1" target="p2oL8cGT3rf3tEynlWrr-146">
          <mxGeometry width="50" height="50" relative="1" as="geometry">
            <mxPoint x="805.5" y="1304" as="sourcePoint" />
            <mxPoint x="855.5" y="1254" as="targetPoint" />
          </mxGeometry>
        </mxCell>
        <mxCell id="p2oL8cGT3rf3tEynlWrr-148" value="&lt;span style=&quot;font-size: 12px;&quot;&gt;block&amp;nbsp;&lt;/span&gt;&lt;div style=&quot;line-height: 10%;&quot;&gt;&lt;span style=&quot;font-size: 12px;&quot;&gt;inclusion&lt;/span&gt;&lt;/div&gt;" style="text;strokeColor=none;fillColor=none;html=1;fontSize=24;fontStyle=1;verticalAlign=middle;align=center;" vertex="1" parent="1">
          <mxGeometry x="649.5" y="1286" width="100" height="40" as="geometry" />
        </mxCell>
        <mxCell id="p2oL8cGT3rf3tEynlWrr-143" value="" style="sketch=0;pointerEvents=1;shadow=0;dashed=0;html=1;strokeColor=none;fillColor=#000000;labelPosition=center;verticalLabelPosition=bottom;verticalAlign=top;outlineConnect=0;align=center;shape=mxgraph.office.concepts.node_generic;" vertex="1" parent="1">
          <mxGeometry x="829.5" y="1274" width="46" height="52" as="geometry" />
        </mxCell>
        <mxCell id="p2oL8cGT3rf3tEynlWrr-152" value="" style="sketch=0;pointerEvents=1;shadow=0;dashed=0;html=1;strokeColor=none;fillColor=#000000;labelPosition=center;verticalLabelPosition=bottom;verticalAlign=top;outlineConnect=0;align=center;shape=mxgraph.office.concepts.node_generic;" vertex="1" parent="1">
          <mxGeometry x="754" y="860" width="46" height="52" as="geometry" />
        </mxCell>
        <mxCell id="p2oL8cGT3rf3tEynlWrr-153" value="" style="sketch=0;pointerEvents=1;shadow=0;dashed=0;html=1;strokeColor=none;fillColor=#000000;labelPosition=center;verticalLabelPosition=bottom;verticalAlign=top;outlineConnect=0;align=center;shape=mxgraph.office.concepts.node_generic;" vertex="1" parent="1">
          <mxGeometry x="910" y="860" width="46" height="52" as="geometry" />
        </mxCell>
        <mxCell id="p2oL8cGT3rf3tEynlWrr-154" value="" style="sketch=0;pointerEvents=1;shadow=0;dashed=0;html=1;strokeColor=none;fillColor=#000000;labelPosition=center;verticalLabelPosition=bottom;verticalAlign=top;outlineConnect=0;align=center;shape=mxgraph.office.concepts.node_generic;" vertex="1" parent="1">
          <mxGeometry x="1071" y="860" width="46" height="52" as="geometry" />
        </mxCell>
        <mxCell id="p2oL8cGT3rf3tEynlWrr-155" value="" style="endArrow=none;dashed=1;html=1;dashPattern=1 3;strokeWidth=2;rounded=0;exitX=0.995;exitY=0.63;exitDx=0;exitDy=0;exitPerimeter=0;" edge="1" parent="1" source="p2oL8cGT3rf3tEynlWrr-126" target="p2oL8cGT3rf3tEynlWrr-131">
          <mxGeometry width="50" height="50" relative="1" as="geometry">
            <mxPoint x="800" y="810" as="sourcePoint" />
            <mxPoint x="910" y="810" as="targetPoint" />
            <Array as="points" />
          </mxGeometry>
        </mxCell>
        <mxCell id="p2oL8cGT3rf3tEynlWrr-131" value="" style="shape=image;verticalLabelPosition=bottom;labelBackgroundColor=default;verticalAlign=top;aspect=fixed;imageAspect=0;image=data:image/png,iVBORw0KGgoAAAANSUhEUgAAAIAAAACACAYAAADDPmHLAAAACXBIWXMAAA7DAAAOwwHHb6hkAAAAGXRFWHRTb2Z0d2FyZQB3d3cuaW5rc2NhcGUub3Jnm+48GgAAC/tJREFUeJztnXmsXUUdx7/zaKFIKRZBaRGh4AYIKmWH0rA0FasIGCOICwZEo1EBJYa4hMQtBBMWARcQNQoCVaClVLBqNJF9qbRlUQISynstUKBKN+DxPv4x59Db23vvmXPunDNz7r2f5OX+8e6d+c18f+fM/hsDPCNpjaQVkkZafD4habkx5lUNqBXAZEm7S5oqaUqLzx0M8Iikdzuk96I6O8kKSSuNMWOeyzGgCWBrWQE7iburpC0yknpknKyALg4wOfnbq8N3NgAjSZrDsk6xXNLK5HOpMWa1Q159C/BGSftI2kXSTsnnFEk7y4o7VdIET9mtGCcrlC8myHrl7m3+fz8w0xiz1mOePUPyZP9R0sEVZfn0kPw6QBbTJV0HZL2a+g5gSNLVqk58SRoekn1dV8kcSedXnGcduEDSCRXnORLCASTpa8CXAuQbJcDpks4OkPVI1U1AIxcDxwXKOxqAD0j6SaDshw2wi6SnAhnwkqQjjDH/DJR/UIC9Jd0uabtAJuxigHGSXpY0FMiIEUkHG2OWB8o/CMAUSXfLDvNCMCZpqyFjzKik5wIZIdlx7TxgYkAbKgV4g6SbFE58SXrWGDOaPvWh+gEp75d0ffI26mmS4d41kg4MbMqwtPG1H9oBJOlYSZeFNqICLpL0kdBGqMkBQgwFW3EG8JXQRpQFcKakL4e2I2FEis8BJOlC4PjQRvgG+KCkH4W2o4FNHCCGJiBlSNI1QOg20hvAfpKuU/bqXJVE1wdoZGtJNwFvC21ItwBTJc2TFNsoJ8o+QCNTJC0EQk2SdA2wraSFkt4a2pYWRNsENLK37Oph7YaHyYrn1ZLeG9qWNmzyBnhB0oZwtnRktqSfhjaiAJdI+nBoI9qwQXaHl3UAYwyKsxlIOQ34emgjXAHOkfTF0HZ0YDjRfJP5/5gdQJLOB04MbUQWwIck/TC0HRm8rnWjA8TaD0gZkvRboModM7kApku6VnEN91rxutZ1cgDJDg9vBvYIbUgzwG6SbpG0TWBTXGjpALE3ASk7yDrB5NCGpACTJM2X9JbQtjjSsgmoiwNI0p6SbgS2DG0IMF7S72W3cteFWvYBmpmpOIaHl0iaFdqInLRsAh6UdG/1tnTFZ4FzQ2We5P2FUPkX5F5JS1r+B5gAXEu9GANOqbYOJeBjwGuBy56XG7G7kToWzADnBTY0L+uBQyvSXsABwNrAZc7LxdjdSJtgOhTydEmXSxpfZmV65HlJhxhjHiszE2CapLskvbnMfDzymqQzjTGXtvpnWweQJGCWpLkKt205L4/L7jBeVUbiwPaS7pD0rjLSL4E1kk42xixo94WOW8GNMYskzVC4cwN52UPSDcBWvhPGDveuV33EH5E0s5P4ksNZAGPMUtkDi/d7MqxsZkj6FdDx7ZaHJK0rJR3tK82SWSL7Jnwg64tOh0GMMStkx93zuzSsKk6S9G2P6X1H0qc9plcmt0maUcpBG2CLpDdZB8aAT3ko88eTtOrAz6hi8wxwBvBq4MK68ApwVBflnAFsCFwGF0aBbxQpY+F2Epgt2ymaVDSNinhB0qHGmH/l+RF2xfFOSTuWYpU/1ko6xRgzr8iPu+ooAftKWqCwZ9xceEJ2juBZly8Db5Id7r2zVKu6Z4Wk44wx9xVNoKsTwcaYJZIOU7u55XjYXdJcHEYG2BXGuYpf/GWyPf3C4ksejoQnvc3DZN8EMTM/3QfXjsRBfiHpyGpMKswiSYcbY+KZn8GOEC4N1QvK4ArHMnwvtKEOXIGdlIoT4KvEtUp2Kw5DI+DU0IZmMAacV4GE3QOcQByrZctwOFkEHEHcw731wEllaOVturQZ7OHOebLRLkOwQraT1LGdBPaUjdMTzR7DJlZJOt4Yc3sZiZfmAJIE7CzbOXxfmfm0YJ2kI40x93T6ErCD7Fj/7ZVYlZ+HJc0xxjwZ2pDCANsCCyt8Xb4GZEbgALYG7qjQrrz8GRs3uP4A44DLK6q4zAgj2F1P11RkTxGuIuaeflEof4TgtEsYOL9EG7qhPj39ogAfBdaVUHm34BCEGjithLx9sAH4RBUaBAc4GHjGY+U9gEOcQWA2ca5irgJmVFH30QBMAx72UHnDQGYEDmAv4EUP+fnmMSD2dYdyACYDf+2i8v4HZEbgAHYCnvQglm/+gR2K9i/AlsCvC1TeKJAZgQM73LvLo2i+uBbwdfVL/SH/CCHzvgFgCLihDPW6YAx78KbUSbhagj1utd6hEi9wTO/CMpUswMt42KfY0wCHAM92qMSbcRvufa4KRXPwPDCzijqsPcAewKMtKvE+IDMCB3AscQ33HgdcruYbkAJsD/ytoRL/A2RG4ADeA6yuXuO23AnU5RxhXABbAb8B/gtkRuAApgJPBRS7mbnYuwAHFAW7cPMOh+9NBBYHlXtTWh7HHlAC2P2I8wILnvIq8PnQddJXAD8OrXrCC3RxEmlAAYCzQque8AR2e9mAqgDmYKeEQ3MXDiOUAR4B9gPWBBYe4A9kBV4a4BdgZ2B5YOFh0NOvHuwm0wcDCz8KxBwOvjfBDvduDiz+S8Cc0HXRlwCXBRb/aaDqMw69AV22lcA5gcW/F3vhc+l0W1fRgZ3TX0DBuL7YncQhD5wuxN4A5mLrRGA+cHLBsp4F3EavrCGwUfyUXE4A7E/Yg6bOPX3sYtT9ye/WA4fkLGvjpNafqLsTsLn4KU5OAOwGrCxN2s6MAs73/AL7svlK5HOA07lDWs9o1tcJsOJ36rF3dAJgErCkaxmL8RIOG04bbJ2NXbJuxcNk3G5C5+ns+jUHZIuf0tIJgPHAIme5/DKMvevXtawuIfP+TpvwtbitZdTLCYB9cN+Vc3aL31/l+FvfLMYeaXcpY96gmVe1SONsx9+uxmFDTFQA07HLoy6c2/C7b+WoVJ/cir38yaVs21Bs/8E3G9JwXcVcTcRX5XWEnE6A3RYeIizrz3EMsQpMwW5OLcIY8En6QfwU4CDcm4NXClRqN4wCZ+YoS6uefl5cy7gaOKhMbSqDfG+CqliDQySRhjLMorrdxvV/8pshLicYAfbPYfvpVPd26j3xU4jDCZYCuzraW/UFWr0rfgphnWARDnEDEzsnAL+r0LbeFz+FME5wJY6Bl7CzkHdXaFvvdPhcoTonKBR4iepC3vbPk98M5TvBBroIsQqcSLkrkf0rfgrlOcEq4HAP9h1IOSuSA/FT8O8E/8bhPGEO+6YBD3m0byB+M/hzgr9QQohV/IW87T/xcYyHQ/dO8EvslS9llWM83a1UOvf2XesseoAdsUOqYxy/X8QJKg2xSrERgvOTj72/4D4gVKh9PyTiL00qYF0OJ8i7gFTKZQoZNp5ECQs7wDFsDKW7FIj92rrWJOI3b+nK4wSF9hNUBSUs6WKf/Obzjo9QtzdBG/F7xgkqFL9+TpAhfkptnYDqxU+J3wlwEz+ldk5AOPFT4nUC8omfUhsnILz4KfE5AcXET4neCYhH/JR4nIDuxE+J1gmIT/yU8E6AH/FTonMC4hU/JZwTsOkkjy/KmCy6FYfg0i3S3yL5bRZFJ3l8Uf1kEeWIn3IP/tYOujpShd0WdluH9HPN7SdlK4PqnAC/r/1mcr/SaO8EXs7T0f6cY+5VvdjqLjexFoDNncDrYUrstTaNTlB4STfWOqy94Wx0glJO0rLRCbpez4+9LtsZXFab7639wp5KLu0iJmyfwMsp3brUaf28tUZEX7fRG9gDRFvH0RrWg0RX19EZ1AdEU+fRGNKHBK/74AYMCKdBsIwHbEblWlSe4YBMKtOksowG5KYSbSjvrr367mmPCMqdMVw8JKmM+24elTTLGPNcCWn3FUkdHiVpaQnJTxiS9JDnRJdJOsIYs9Jzun1L4gRHy9atT5YNSbrFY4KDJ78kSnoTLBCwHX62KQ3a/ArAX59gLeklGMAPukxs0NuvEPyMDr7bmOC22AuRijB48gNAd2+C5cDE5gSnkz8g0uDJDwjF3gTrabeRFTge9/7A4MmPAPK9CdaRFR8ZGxUr61rWgfgR4egEy4EDXBOciO0YtmoSBuJHSAcnWAt8n+Y23zHRScCpwFzgUey08UD8SEmcYHGi1VzgM2Tcd/h/Ykmlre/FTPEAAAAASUVORK5CYII=;" vertex="1" parent="1">
          <mxGeometry x="833" y="790" width="38" height="38" as="geometry" />
        </mxCell>
        <mxCell id="p2oL8cGT3rf3tEynlWrr-132" value="" style="shape=image;verticalLabelPosition=bottom;labelBackgroundColor=default;verticalAlign=top;aspect=fixed;imageAspect=0;image=data:image/png,iVBORw0KGgoAAAANSUhEUgAAAIAAAACACAYAAADDPmHLAAAACXBIWXMAAA7DAAAOwwHHb6hkAAAAGXRFWHRTb2Z0d2FyZQB3d3cuaW5rc2NhcGUub3Jnm+48GgAAC/tJREFUeJztnXmsXUUdx7/zaKFIKRZBaRGh4AYIKmWH0rA0FasIGCOICwZEo1EBJYa4hMQtBBMWARcQNQoCVaClVLBqNJF9qbRlUQISynstUKBKN+DxPv4x59Db23vvmXPunDNz7r2f5OX+8e6d+c18f+fM/hsDPCNpjaQVkkZafD4habkx5lUNqBXAZEm7S5oqaUqLzx0M8Iikdzuk96I6O8kKSSuNMWOeyzGgCWBrWQE7iburpC0yknpknKyALg4wOfnbq8N3NgAjSZrDsk6xXNLK5HOpMWa1Q159C/BGSftI2kXSTsnnFEk7y4o7VdIET9mtGCcrlC8myHrl7m3+fz8w0xiz1mOePUPyZP9R0sEVZfn0kPw6QBbTJV0HZL2a+g5gSNLVqk58SRoekn1dV8kcSedXnGcduEDSCRXnORLCASTpa8CXAuQbJcDpks4OkPVI1U1AIxcDxwXKOxqAD0j6SaDshw2wi6SnAhnwkqQjjDH/DJR/UIC9Jd0uabtAJuxigHGSXpY0FMiIEUkHG2OWB8o/CMAUSXfLDvNCMCZpqyFjzKik5wIZIdlx7TxgYkAbKgV4g6SbFE58SXrWGDOaPvWh+gEp75d0ffI26mmS4d41kg4MbMqwtPG1H9oBJOlYSZeFNqICLpL0kdBGqMkBQgwFW3EG8JXQRpQFcKakL4e2I2FEis8BJOlC4PjQRvgG+KCkH4W2o4FNHCCGJiBlSNI1QOg20hvAfpKuU/bqXJVE1wdoZGtJNwFvC21ItwBTJc2TFNsoJ8o+QCNTJC0EQk2SdA2wraSFkt4a2pYWRNsENLK37Oph7YaHyYrn1ZLeG9qWNmzyBnhB0oZwtnRktqSfhjaiAJdI+nBoI9qwQXaHl3UAYwyKsxlIOQ34emgjXAHOkfTF0HZ0YDjRfJP5/5gdQJLOB04MbUQWwIck/TC0HRm8rnWjA8TaD0gZkvRboModM7kApku6VnEN91rxutZ1cgDJDg9vBvYIbUgzwG6SbpG0TWBTXGjpALE3ASk7yDrB5NCGpACTJM2X9JbQtjjSsgmoiwNI0p6SbgS2DG0IMF7S72W3cteFWvYBmpmpOIaHl0iaFdqInLRsAh6UdG/1tnTFZ4FzQ2We5P2FUPkX5F5JS1r+B5gAXEu9GANOqbYOJeBjwGuBy56XG7G7kToWzADnBTY0L+uBQyvSXsABwNrAZc7LxdjdSJtgOhTydEmXSxpfZmV65HlJhxhjHiszE2CapLskvbnMfDzymqQzjTGXtvpnWweQJGCWpLkKt205L4/L7jBeVUbiwPaS7pD0rjLSL4E1kk42xixo94WOW8GNMYskzVC4cwN52UPSDcBWvhPGDveuV33EH5E0s5P4ksNZAGPMUtkDi/d7MqxsZkj6FdDx7ZaHJK0rJR3tK82SWSL7Jnwg64tOh0GMMStkx93zuzSsKk6S9G2P6X1H0qc9plcmt0maUcpBG2CLpDdZB8aAT3ko88eTtOrAz6hi8wxwBvBq4MK68ApwVBflnAFsCFwGF0aBbxQpY+F2Epgt2ymaVDSNinhB0qHGmH/l+RF2xfFOSTuWYpU/1ko6xRgzr8iPu+ooAftKWqCwZ9xceEJ2juBZly8Db5Id7r2zVKu6Z4Wk44wx9xVNoKsTwcaYJZIOU7u55XjYXdJcHEYG2BXGuYpf/GWyPf3C4ksejoQnvc3DZN8EMTM/3QfXjsRBfiHpyGpMKswiSYcbY+KZn8GOEC4N1QvK4ArHMnwvtKEOXIGdlIoT4KvEtUp2Kw5DI+DU0IZmMAacV4GE3QOcQByrZctwOFkEHEHcw731wEllaOVturQZ7OHOebLRLkOwQraT1LGdBPaUjdMTzR7DJlZJOt4Yc3sZiZfmAJIE7CzbOXxfmfm0YJ2kI40x93T6ErCD7Fj/7ZVYlZ+HJc0xxjwZ2pDCANsCCyt8Xb4GZEbgALYG7qjQrrz8GRs3uP4A44DLK6q4zAgj2F1P11RkTxGuIuaeflEof4TgtEsYOL9EG7qhPj39ogAfBdaVUHm34BCEGjithLx9sAH4RBUaBAc4GHjGY+U9gEOcQWA2ca5irgJmVFH30QBMAx72UHnDQGYEDmAv4EUP+fnmMSD2dYdyACYDf+2i8v4HZEbgAHYCnvQglm/+gR2K9i/AlsCvC1TeKJAZgQM73LvLo2i+uBbwdfVL/SH/CCHzvgFgCLihDPW6YAx78KbUSbhagj1utd6hEi9wTO/CMpUswMt42KfY0wCHAM92qMSbcRvufa4KRXPwPDCzijqsPcAewKMtKvE+IDMCB3AscQ33HgdcruYbkAJsD/ytoRL/A2RG4ADeA6yuXuO23AnU5RxhXABbAb8B/gtkRuAApgJPBRS7mbnYuwAHFAW7cPMOh+9NBBYHlXtTWh7HHlAC2P2I8wILnvIq8PnQddJXAD8OrXrCC3RxEmlAAYCzQque8AR2e9mAqgDmYKeEQ3MXDiOUAR4B9gPWBBYe4A9kBV4a4BdgZ2B5YOFh0NOvHuwm0wcDCz8KxBwOvjfBDvduDiz+S8Cc0HXRlwCXBRb/aaDqMw69AV22lcA5gcW/F3vhc+l0W1fRgZ3TX0DBuL7YncQhD5wuxN4A5mLrRGA+cHLBsp4F3EavrCGwUfyUXE4A7E/Yg6bOPX3sYtT9ye/WA4fkLGvjpNafqLsTsLn4KU5OAOwGrCxN2s6MAs73/AL7svlK5HOA07lDWs9o1tcJsOJ36rF3dAJgErCkaxmL8RIOG04bbJ2NXbJuxcNk3G5C5+ns+jUHZIuf0tIJgPHAIme5/DKMvevXtawuIfP+TpvwtbitZdTLCYB9cN+Vc3aL31/l+FvfLMYeaXcpY96gmVe1SONsx9+uxmFDTFQA07HLoy6c2/C7b+WoVJ/cir38yaVs21Bs/8E3G9JwXcVcTcRX5XWEnE6A3RYeIizrz3EMsQpMwW5OLcIY8En6QfwU4CDcm4NXClRqN4wCZ+YoS6uefl5cy7gaOKhMbSqDfG+CqliDQySRhjLMorrdxvV/8pshLicYAfbPYfvpVPd26j3xU4jDCZYCuzraW/UFWr0rfgphnWARDnEDEzsnAL+r0LbeFz+FME5wJY6Bl7CzkHdXaFvvdPhcoTonKBR4iepC3vbPk98M5TvBBroIsQqcSLkrkf0rfgrlOcEq4HAP9h1IOSuSA/FT8O8E/8bhPGEO+6YBD3m0byB+M/hzgr9QQohV/IW87T/xcYyHQ/dO8EvslS9llWM83a1UOvf2XesseoAdsUOqYxy/X8QJKg2xSrERgvOTj72/4D4gVKh9PyTiL00qYF0OJ8i7gFTKZQoZNp5ECQs7wDFsDKW7FIj92rrWJOI3b+nK4wSF9hNUBSUs6WKf/Obzjo9QtzdBG/F7xgkqFL9+TpAhfkptnYDqxU+J3wlwEz+ldk5AOPFT4nUC8omfUhsnILz4KfE5AcXET4neCYhH/JR4nIDuxE+J1gmIT/yU8E6AH/FTonMC4hU/JZwTsOkkjy/KmCy6FYfg0i3S3yL5bRZFJ3l8Uf1kEeWIn3IP/tYOujpShd0WdluH9HPN7SdlK4PqnAC/r/1mcr/SaO8EXs7T0f6cY+5VvdjqLjexFoDNncDrYUrstTaNTlB4STfWOqy94Wx0glJO0rLRCbpez4+9LtsZXFab7639wp5KLu0iJmyfwMsp3brUaf28tUZEX7fRG9gDRFvH0RrWg0RX19EZ1AdEU+fRGNKHBK/74AYMCKdBsIwHbEblWlSe4YBMKtOksowG5KYSbSjvrr367mmPCMqdMVw8JKmM+24elTTLGPNcCWn3FUkdHiVpaQnJTxiS9JDnRJdJOsIYs9Jzun1L4gRHy9atT5YNSbrFY4KDJ78kSnoTLBCwHX62KQ3a/ArAX59gLeklGMAPukxs0NuvEPyMDr7bmOC22AuRijB48gNAd2+C5cDE5gSnkz8g0uDJDwjF3gTrabeRFTge9/7A4MmPAPK9CdaRFR8ZGxUr61rWgfgR4egEy4EDXBOciO0YtmoSBuJHSAcnWAt8n+Y23zHRScCpwFzgUey08UD8SEmcYHGi1VzgM2Tcd/h/Ykmlre/FTPEAAAAASUVORK5CYII=;" vertex="1" parent="1">
          <mxGeometry x="995" y="790" width="38" height="38" as="geometry" />
        </mxCell>
        <mxCell id="p2oL8cGT3rf3tEynlWrr-158" value="" style="endArrow=classic;html=1;rounded=0;" edge="1" parent="1">
          <mxGeometry width="50" height="50" relative="1" as="geometry">
            <mxPoint x="776.5" y="828" as="sourcePoint" />
            <mxPoint x="777" y="860" as="targetPoint" />
          </mxGeometry>
        </mxCell>
        <mxCell id="p2oL8cGT3rf3tEynlWrr-160" value="" style="endArrow=classic;html=1;rounded=0;" edge="1" parent="1">
          <mxGeometry width="50" height="50" relative="1" as="geometry">
            <mxPoint x="932.71" y="828" as="sourcePoint" />
            <mxPoint x="933.21" y="860" as="targetPoint" />
          </mxGeometry>
        </mxCell>
        <mxCell id="p2oL8cGT3rf3tEynlWrr-161" value="" style="endArrow=classic;html=1;rounded=0;" edge="1" parent="1">
          <mxGeometry width="50" height="50" relative="1" as="geometry">
            <mxPoint x="1094.71" y="828" as="sourcePoint" />
            <mxPoint x="1095.21" y="860" as="targetPoint" />
          </mxGeometry>
        </mxCell>
        <mxCell id="p2oL8cGT3rf3tEynlWrr-162" value="9" style="ellipse;whiteSpace=wrap;html=1;aspect=fixed;rotation=0;gradientColor=#223548;strokeColor=none;gradientDirection=east;fillColor=#5b738b;rounded=0;pointerEvents=0;fontFamily=Helvetica;fontSize=16;fontColor=#FFFFFF;spacingTop=4;spacingBottom=4;spacingLeft=4;spacingRight=4;points=[];fontStyle=1" vertex="1" parent="1">
          <mxGeometry x="670.5" y="930" width="30" height="30" as="geometry" />
        </mxCell>
        <mxCell id="p2oL8cGT3rf3tEynlWrr-163" value="&lt;span style=&quot;font-size: 12px;&quot;&gt;Proof of Work&lt;/span&gt;" style="text;strokeColor=none;fillColor=none;html=1;fontSize=24;fontStyle=1;verticalAlign=middle;align=center;" vertex="1" parent="1">
          <mxGeometry x="635.5" y="956" width="100" height="40" as="geometry" />
        </mxCell>
        <mxCell id="p2oL8cGT3rf3tEynlWrr-164" value="" style="sketch=0;pointerEvents=1;shadow=0;dashed=0;html=1;strokeColor=#A50040;fillColor=#d80073;labelPosition=center;verticalLabelPosition=bottom;verticalAlign=top;outlineConnect=0;align=center;shape=mxgraph.office.concepts.node_generic;fontColor=#ffffff;" vertex="1" parent="1">
          <mxGeometry x="910" y="968" width="46" height="52" as="geometry" />
        </mxCell>
        <mxCell id="p2oL8cGT3rf3tEynlWrr-167" value="" style="aspect=fixed;sketch=0;html=1;dashed=0;whitespace=wrap;verticalLabelPosition=bottom;verticalAlign=top;fillColor=#2875E2;strokeColor=#ffffff;points=[[0.005,0.63,0],[0.1,0.2,0],[0.9,0.2,0],[0.5,0,0],[0.995,0.63,0],[0.72,0.99,0],[0.5,1,0],[0.28,0.99,0]];shape=mxgraph.kubernetes.icon2;prIcon=node" vertex="1" parent="1">
          <mxGeometry x="640" y="1130" width="50" height="48" as="geometry" />
        </mxCell>
        <mxCell id="p2oL8cGT3rf3tEynlWrr-168" value="" style="aspect=fixed;sketch=0;html=1;dashed=0;whitespace=wrap;verticalLabelPosition=bottom;verticalAlign=top;fillColor=#f8cecc;strokeColor=#b85450;points=[[0.005,0.63,0],[0.1,0.2,0],[0.9,0.2,0],[0.5,0,0],[0.995,0.63,0],[0.72,0.99,0],[0.5,1,0],[0.28,0.99,0]];shape=mxgraph.kubernetes.icon2;prIcon=node" vertex="1" parent="1">
          <mxGeometry x="750" y="1050" width="50" height="48" as="geometry" />
        </mxCell>
        <mxCell id="p2oL8cGT3rf3tEynlWrr-169" value="" style="aspect=fixed;sketch=0;html=1;dashed=0;whitespace=wrap;verticalLabelPosition=bottom;verticalAlign=top;fillColor=#2875E2;strokeColor=#ffffff;points=[[0.005,0.63,0],[0.1,0.2,0],[0.9,0.2,0],[0.5,0,0],[0.995,0.63,0],[0.72,0.99,0],[0.5,1,0],[0.28,0.99,0]];shape=mxgraph.kubernetes.icon2;prIcon=node" vertex="1" parent="1">
          <mxGeometry x="1040" y="1020" width="50" height="48" as="geometry" />
        </mxCell>
        <mxCell id="p2oL8cGT3rf3tEynlWrr-170" value="" style="aspect=fixed;sketch=0;html=1;dashed=0;whitespace=wrap;verticalLabelPosition=bottom;verticalAlign=top;fillColor=#2875E2;strokeColor=#ffffff;points=[[0.005,0.63,0],[0.1,0.2,0],[0.9,0.2,0],[0.5,0,0],[0.995,0.63,0],[0.72,0.99,0],[0.5,1,0],[0.28,0.99,0]];shape=mxgraph.kubernetes.icon2;prIcon=node" vertex="1" parent="1">
          <mxGeometry x="910" y="1068" width="50" height="48" as="geometry" />
        </mxCell>
        <mxCell id="p2oL8cGT3rf3tEynlWrr-171" value="" style="aspect=fixed;sketch=0;html=1;dashed=0;whitespace=wrap;verticalLabelPosition=bottom;verticalAlign=top;fillColor=#f8cecc;strokeColor=#b85450;points=[[0.005,0.63,0],[0.1,0.2,0],[0.9,0.2,0],[0.5,0,0],[0.995,0.63,0],[0.72,0.99,0],[0.5,1,0],[0.28,0.99,0]];shape=mxgraph.kubernetes.icon2;prIcon=node" vertex="1" parent="1">
          <mxGeometry x="970" y="1138" width="50" height="48" as="geometry" />
        </mxCell>
        <mxCell id="p2oL8cGT3rf3tEynlWrr-172" value="" style="aspect=fixed;sketch=0;html=1;dashed=0;whitespace=wrap;verticalLabelPosition=bottom;verticalAlign=top;fillColor=#2875E2;strokeColor=#ffffff;points=[[0.005,0.63,0],[0.1,0.2,0],[0.9,0.2,0],[0.5,0,0],[0.995,0.63,0],[0.72,0.99,0],[0.5,1,0],[0.28,0.99,0]];shape=mxgraph.kubernetes.icon2;prIcon=node" vertex="1" parent="1">
          <mxGeometry x="860" y="1178" width="50" height="48" as="geometry" />
        </mxCell>
        <mxCell id="p2oL8cGT3rf3tEynlWrr-173" value="" style="endArrow=classic;html=1;rounded=0;entryX=0.005;entryY=0.63;entryDx=0;entryDy=0;entryPerimeter=0;" edge="1" parent="1" target="p2oL8cGT3rf3tEynlWrr-171">
          <mxGeometry width="50" height="50" relative="1" as="geometry">
            <mxPoint x="690" y="1160" as="sourcePoint" />
            <mxPoint x="740" y="1110" as="targetPoint" />
          </mxGeometry>
        </mxCell>
        <mxCell id="p2oL8cGT3rf3tEynlWrr-174" value="" style="endArrow=classic;html=1;rounded=0;exitX=0.28;exitY=0.99;exitDx=0;exitDy=0;exitPerimeter=0;entryX=0.995;entryY=0.63;entryDx=0;entryDy=0;entryPerimeter=0;" edge="1" parent="1" source="p2oL8cGT3rf3tEynlWrr-171" target="p2oL8cGT3rf3tEynlWrr-172">
          <mxGeometry width="50" height="50" relative="1" as="geometry">
            <mxPoint x="960" y="1250" as="sourcePoint" />
            <mxPoint x="1010" y="1200" as="targetPoint" />
          </mxGeometry>
        </mxCell>
        <mxCell id="p2oL8cGT3rf3tEynlWrr-175" value="" style="endArrow=classic;html=1;rounded=0;exitX=0.005;exitY=0.63;exitDx=0;exitDy=0;exitPerimeter=0;entryX=0.995;entryY=0.63;entryDx=0;entryDy=0;entryPerimeter=0;" edge="1" parent="1" source="p2oL8cGT3rf3tEynlWrr-170" target="p2oL8cGT3rf3tEynlWrr-168">
          <mxGeometry width="50" height="50" relative="1" as="geometry">
            <mxPoint x="850" y="1090" as="sourcePoint" />
            <mxPoint x="900" y="1040" as="targetPoint" />
          </mxGeometry>
        </mxCell>
        <mxCell id="p2oL8cGT3rf3tEynlWrr-176" value="" style="endArrow=classic;html=1;rounded=0;exitX=0.9;exitY=0.2;exitDx=0;exitDy=0;exitPerimeter=0;entryX=0.005;entryY=0.63;entryDx=0;entryDy=0;entryPerimeter=0;" edge="1" parent="1" source="p2oL8cGT3rf3tEynlWrr-168" target="p2oL8cGT3rf3tEynlWrr-169">
          <mxGeometry width="50" height="50" relative="1" as="geometry">
            <mxPoint x="790" y="1070" as="sourcePoint" />
            <mxPoint x="840" y="1020" as="targetPoint" />
          </mxGeometry>
        </mxCell>
        <mxCell id="p2oL8cGT3rf3tEynlWrr-177" value="" style="endArrow=classic;html=1;rounded=0;exitX=0.28;exitY=0.99;exitDx=0;exitDy=0;exitPerimeter=0;entryX=0.995;entryY=0.63;entryDx=0;entryDy=0;entryPerimeter=0;" edge="1" parent="1" source="p2oL8cGT3rf3tEynlWrr-169">
          <mxGeometry width="50" height="50" relative="1" as="geometry">
            <mxPoint x="1000" y="1130" as="sourcePoint" />
            <mxPoint x="790" y="1208" as="targetPoint" />
          </mxGeometry>
        </mxCell>
        <mxCell id="p2oL8cGT3rf3tEynlWrr-178" value="" style="shape=image;html=1;verticalAlign=top;verticalLabelPosition=bottom;labelBackgroundColor=#ffffff;imageAspect=0;aspect=fixed;image=https://cdn2.iconfinder.com/data/icons/onebit/PNG/onebit_34.png" vertex="1" parent="1">
          <mxGeometry x="1099" y="1040" width="21" height="21" as="geometry" />
        </mxCell>
        <mxCell id="p2oL8cGT3rf3tEynlWrr-179" value="" style="shape=image;html=1;verticalAlign=top;verticalLabelPosition=bottom;labelBackgroundColor=#ffffff;imageAspect=0;aspect=fixed;image=https://cdn2.iconfinder.com/data/icons/onebit/PNG/onebit_34.png" vertex="1" parent="1">
          <mxGeometry x="1019" y="1130" width="21" height="21" as="geometry" />
        </mxCell>
        <mxCell id="p2oL8cGT3rf3tEynlWrr-189" value="" style="endArrow=classic;html=1;rounded=0;" edge="1" parent="1" target="p2oL8cGT3rf3tEynlWrr-164">
          <mxGeometry width="50" height="50" relative="1" as="geometry">
            <mxPoint x="932.5951851851852" y="912" as="sourcePoint" />
            <mxPoint x="941.41" y="940" as="targetPoint" />
          </mxGeometry>
        </mxCell>
        <mxCell id="p2oL8cGT3rf3tEynlWrr-191" value="" style="endArrow=none;dashed=1;html=1;dashPattern=1 3;strokeWidth=2;rounded=0;exitX=0.995;exitY=0.63;exitDx=0;exitDy=0;exitPerimeter=0;entryX=0.005;entryY=0.63;entryDx=0;entryDy=0;entryPerimeter=0;" edge="1" parent="1" target="p2oL8cGT3rf3tEynlWrr-128">
          <mxGeometry width="50" height="50" relative="1" as="geometry">
            <mxPoint x="866" y="809.5" as="sourcePoint" />
            <mxPoint x="899" y="808.5" as="targetPoint" />
            <Array as="points" />
          </mxGeometry>
        </mxCell>
        <mxCell id="p2oL8cGT3rf3tEynlWrr-192" value="" style="endArrow=none;dashed=1;html=1;dashPattern=1 3;strokeWidth=2;rounded=0;exitX=0.995;exitY=0.63;exitDx=0;exitDy=0;exitPerimeter=0;entryX=0.005;entryY=0.63;entryDx=0;entryDy=0;entryPerimeter=0;" edge="1" parent="1">
          <mxGeometry width="50" height="50" relative="1" as="geometry">
            <mxPoint x="960" y="808.75" as="sourcePoint" />
            <mxPoint x="1004" y="809.25" as="targetPoint" />
            <Array as="points" />
          </mxGeometry>
        </mxCell>
        <mxCell id="p2oL8cGT3rf3tEynlWrr-193" value="" style="endArrow=none;dashed=1;html=1;dashPattern=1 3;strokeWidth=2;rounded=0;exitX=0.995;exitY=0.63;exitDx=0;exitDy=0;exitPerimeter=0;entryX=0.005;entryY=0.63;entryDx=0;entryDy=0;entryPerimeter=0;" edge="1" parent="1">
          <mxGeometry width="50" height="50" relative="1" as="geometry">
            <mxPoint x="1026" y="808.75" as="sourcePoint" />
            <mxPoint x="1070" y="809.25" as="targetPoint" />
            <Array as="points" />
          </mxGeometry>
        </mxCell>
        <mxCell id="p2oL8cGT3rf3tEynlWrr-195" value="" style="endArrow=classic;html=1;rounded=0;" edge="1" parent="1">
          <mxGeometry width="50" height="50" relative="1" as="geometry">
            <mxPoint x="932.5851851851852" y="1020" as="sourcePoint" />
            <mxPoint x="933" y="1070" as="targetPoint" />
          </mxGeometry>
        </mxCell>
        <mxCell id="p2oL8cGT3rf3tEynlWrr-196" value="" style="shape=image;html=1;verticalAlign=top;verticalLabelPosition=bottom;labelBackgroundColor=#ffffff;imageAspect=0;aspect=fixed;image=https://cdn2.iconfinder.com/data/icons/onebit/PNG/onebit_34.png" vertex="1" parent="1">
          <mxGeometry x="727.5" y="1068" width="21" height="21" as="geometry" />
        </mxCell>
        <mxCell id="p2oL8cGT3rf3tEynlWrr-197" value="" style="shape=image;html=1;verticalAlign=top;verticalLabelPosition=bottom;labelBackgroundColor=#ffffff;imageAspect=0;aspect=fixed;image=https://cdn2.iconfinder.com/data/icons/onebit/PNG/onebit_34.png" vertex="1" parent="1">
          <mxGeometry x="839" y="1200" width="21" height="21" as="geometry" />
        </mxCell>
        <mxCell id="p2oL8cGT3rf3tEynlWrr-198" value="" style="shape=image;html=1;verticalAlign=top;verticalLabelPosition=bottom;labelBackgroundColor=#ffffff;imageAspect=0;aspect=fixed;image=https://cdn2.iconfinder.com/data/icons/onebit/PNG/onebit_34.png" vertex="1" parent="1">
          <mxGeometry x="670.5" y="1109" width="21" height="21" as="geometry" />
        </mxCell>
        <mxCell id="p2oL8cGT3rf3tEynlWrr-199" value="" style="aspect=fixed;sketch=0;html=1;dashed=0;whitespace=wrap;verticalLabelPosition=bottom;verticalAlign=top;fillColor=#2875E2;strokeColor=#ffffff;points=[[0.005,0.63,0],[0.1,0.2,0],[0.9,0.2,0],[0.5,0,0],[0.995,0.63,0],[0.72,0.99,0],[0.5,1,0],[0.28,0.99,0]];shape=mxgraph.kubernetes.icon2;prIcon=node" vertex="1" parent="1">
          <mxGeometry x="740" y="1186.5" width="50" height="48" as="geometry" />
        </mxCell>
        <mxCell id="p2oL8cGT3rf3tEynlWrr-201" value="" style="shape=image;html=1;verticalAlign=top;verticalLabelPosition=bottom;labelBackgroundColor=#ffffff;imageAspect=0;aspect=fixed;image=https://cdn2.iconfinder.com/data/icons/onebit/PNG/onebit_34.png" vertex="1" parent="1">
          <mxGeometry x="714.5" y="1205" width="21" height="21" as="geometry" />
        </mxCell>
        <mxCell id="p2oL8cGT3rf3tEynlWrr-202" value="" style="endArrow=classic;html=1;rounded=0;exitX=0.1;exitY=0.2;exitDx=0;exitDy=0;exitPerimeter=0;" edge="1" parent="1" source="p2oL8cGT3rf3tEynlWrr-199">
          <mxGeometry width="50" height="50" relative="1" as="geometry">
            <mxPoint x="630" y="1220" as="sourcePoint" />
            <mxPoint x="680" y="1170" as="targetPoint" />
          </mxGeometry>
        </mxCell>
        <mxCell id="p2oL8cGT3rf3tEynlWrr-203" value="10" style="ellipse;whiteSpace=wrap;html=1;aspect=fixed;rotation=0;gradientColor=#223548;strokeColor=none;gradientDirection=east;fillColor=#5b738b;rounded=0;pointerEvents=0;fontFamily=Helvetica;fontSize=16;fontColor=#FFFFFF;spacingTop=4;spacingBottom=4;spacingLeft=4;spacingRight=4;points=[];fontStyle=1" vertex="1" parent="1">
          <mxGeometry x="649.5" y="1032" width="30" height="30" as="geometry" />
        </mxCell>
        <mxCell id="p2oL8cGT3rf3tEynlWrr-204" value="&lt;span style=&quot;font-size: 12px;&quot;&gt;Block&amp;nbsp;&lt;/span&gt;&lt;div style=&quot;line-height: 10%;&quot;&gt;&lt;span style=&quot;font-size: 12px;&quot;&gt;propagation&lt;/span&gt;&lt;/div&gt;" style="text;strokeColor=none;fillColor=none;html=1;fontSize=24;fontStyle=1;verticalAlign=middle;align=center;" vertex="1" parent="1">
          <mxGeometry x="614.5" y="1058" width="100" height="40" as="geometry" />
        </mxCell>
        <mxCell id="p2oL8cGT3rf3tEynlWrr-205" value="" style="shape=image;html=1;verticalAlign=top;verticalLabelPosition=bottom;labelBackgroundColor=#ffffff;imageAspect=0;aspect=fixed;image=https://cdn2.iconfinder.com/data/icons/onebit/PNG/onebit_34.png" vertex="1" parent="1">
          <mxGeometry x="1078" y="1260" width="21" height="21" as="geometry" />
        </mxCell>
      </root>
    </mxGraphModel>
  </diagram>
</mxfile>
